<?xml version="1.0" standalone="no"?>
<!DOCTYPE svg PUBLIC "-//W3C//DTD SVG 20010904//EN"
 "http://www.w3.org/TR/2001/REC-SVG-20010904/DTD/svg10.dtd">
<svg version="1.0" xmlns="http://www.w3.org/2000/svg"
 width="700.000000pt" height="700.000000pt" viewBox="0 0 700.000000 700.000000"
 preserveAspectRatio="xMidYMid meet">
<metadata>
Created by potrace 1.14, written by Peter Selinger 2001-2017
</metadata>
<g transform="translate(0.000000,700.000000) scale(0.100000,-0.100000)"
fill="#000000" stroke="none">
<path d="M3318 6935 c-2 -2 -41 -5 -88 -9 -109 -7 -318 -33 -330 -41 -3 -2
-26 -6 -50 -10 -25 -3 -99 -20 -165 -36 -66 -17 -127 -32 -135 -34 -55 -13
-235 -76 -340 -119 -419 -171 -802 -423 -1120 -737 -94 -93 -128 -130 -220
-235 -51 -58 -188 -241 -242 -324 -195 -298 -340 -614 -435 -950 -19 -69 -36
-132 -38 -140 -39 -178 -42 -196 -70 -396 -25 -177 -25 -660 -1 -804 3 -14 7
-45 10 -70 24 -187 84 -437 152 -639 367 -1083 1266 -1921 2376 -2215 92 -24
212 -50 284 -62 20 -3 44 -7 53 -9 9 -2 44 -6 76 -10 33 -4 69 -9 80 -11 126
-24 649 -23 785 0 14 3 59 10 100 15 41 6 86 13 100 16 14 3 41 8 60 11 75 12
291 68 400 104 768 252 1414 754 1847 1435 220 346 379 744 461 1150 50 247
67 425 66 705 0 178 -6 272 -24 415 -148 1154 -863 2148 -1915 2660 -251 122
-526 216 -787 269 -145 29 -191 36 -303 50 -27 3 -72 8 -100 12 -48 6 -482 14
-487 9z m322 -339 c127 -5 247 -16 345 -32 55 -9 90 -15 120 -20 119 -20 364
-92 515 -151 414 -163 751 -383 1066 -697 361 -361 601 -749 762 -1231 30 -87
84 -293 96 -365 3 -19 8 -46 11 -60 5 -25 15 -87 20 -130 4 -28 14 -122 20
-190 5 -61 6 -373 0 -435 -10 -117 -17 -181 -20 -200 -3 -11 -7 -38 -10 -59
-3 -21 -7 -48 -10 -60 -2 -12 -7 -39 -10 -61 -15 -105 -113 -439 -165 -560
-89 -207 -147 -321 -248 -485 -130 -211 -288 -406 -479 -590 -120 -116 -129
-124 -258 -225 -329 -257 -726 -450 -1140 -554 -89 -22 -106 -26 -220 -46
-100 -17 -134 -22 -215 -30 -36 -3 -83 -8 -105 -10 -56 -6 -345 -6 -435 0 -74
5 -271 30 -320 40 -14 2 -50 10 -80 16 -183 36 -441 116 -590 181 -165 73
-440 220 -448 240 -2 4 -8 8 -14 8 -11 0 -225 151 -261 184 -13 12 -40 34 -60
49 -64 49 -275 257 -356 351 -266 312 -461 654 -589 1031 -36 108 -87 289 -98
355 -3 14 -11 61 -19 105 -64 361 -60 812 11 1135 3 14 7 36 10 50 62 307 204
665 385 965 57 95 193 285 269 376 56 67 297 310 365 368 78 67 264 205 325
242 30 18 57 36 60 39 21 26 323 178 465 234 39 16 79 32 90 37 59 25 250 83
345 104 116 27 211 45 285 55 50 6 101 13 115 16 14 2 86 7 160 10 74 3 137 8
138 9 2 2 9 2 15 0 7 -2 77 -6 157 -9z"/>
<path d="M3240 5648 c-322 -34 -579 -262 -659 -585 -26 -104 -32 -156 -32
-255 1 -265 89 -480 268 -649 185 -176 426 -247 658 -194 68 15 80 19 155 54
281 130 453 422 454 771 1 174 -16 272 -68 402 -70 172 -206 316 -370 392 -57
27 -164 56 -226 62 -30 3 -66 6 -80 8 -14 1 -59 -1 -100 -6z m184 -222 c158
-46 289 -200 342 -401 28 -106 25 -370 -5 -480 -66 -243 -216 -383 -422 -391
-230 -9 -392 116 -458 354 -51 183 -47 435 9 598 46 133 137 242 245 294 102
49 185 56 289 26z"/>
<path d="M4781 5639 c-54 -11 -81 -30 -106 -74 -17 -29 -258 -645 -399 -1015
-3 -8 -54 -141 -114 -295 -123 -316 -122 -299 -16 -298 70 0 151 37 189 88 13
16 54 111 90 210 37 99 72 184 77 190 12 14 627 14 637 0 9 -13 29 -62 86
-215 26 -68 53 -137 61 -152 46 -89 172 -143 272 -116 20 5 32 14 29 21 -6 14
-135 346 -399 1027 -209 541 -231 588 -275 613 -36 21 -84 27 -132 16z m140
-619 c50 -124 97 -238 104 -255 7 -16 16 -40 20 -52 l6 -23 -231 0 c-217 0
-232 1 -226 18 53 144 223 549 228 543 5 -4 49 -108 99 -231z"/>
<path d="M2345 5629 c-38 -4 -196 -7 -349 -8 -357 -2 -411 -13 -489 -100 -46
-51 -71 -101 -86 -170 -17 -79 -14 -810 4 -916 30 -182 107 -302 245 -381 39
-22 114 -54 145 -60 99 -22 153 -27 305 -27 201 -1 255 11 309 67 33 34 61
107 61 158 0 28 -1 28 -42 23 -195 -24 -379 -21 -522 11 -182 40 -224 107
-233 372 l-6 152 184 1 c101 0 195 2 208 5 44 8 92 37 117 70 27 35 56 127 47
149 -4 11 -58 14 -276 15 -149 0 -272 2 -274 3 -1 2 -3 75 -5 164 -2 139 0
164 16 187 9 15 27 31 39 35 12 5 129 9 260 9 366 1 413 23 430 199 2 25 -1
43 -7 45 -6 2 -42 1 -81 -3z"/>
<path d="M4783 3729 c-97 -9 -143 -38 -160 -102 -9 -31 -16 -978 -8 -1054 15
-148 98 -185 395 -178 175 4 185 5 295 35 207 56 335 211 374 455 9 57 8 311
-2 365 -30 160 -107 292 -216 368 -64 45 -202 96 -291 107 -72 10 -308 12
-387 4z m387 -188 c189 -54 281 -198 283 -446 1 -169 -25 -277 -90 -373 -73
-107 -160 -143 -342 -139 -129 2 -155 12 -170 62 -13 40 -12 854 0 877 5 10
24 21 42 26 46 12 224 7 277 -7z"/>
<path d="M1805 3715 c-232 -46 -403 -210 -472 -450 -22 -77 -26 -286 -7 -370
52 -225 206 -401 407 -465 184 -57 422 -39 543 42 88 59 113 143 114 369 0
192 -39 274 -146 305 -71 20 -351 26 -370 7 -21 -21 4 -89 48 -130 35 -33 73
-44 154 -44 40 0 79 -6 88 -12 9 -7 20 -33 25 -59 12 -66 8 -218 -8 -255 -46
-112 -276 -130 -417 -32 -62 42 -126 119 -163 194 -18 36 -34 72 -35 78 -1 7
-8 39 -15 72 -13 57 -11 186 4 260 12 60 74 171 121 217 49 49 138 102 189
114 53 12 159 7 220 -12 86 -25 143 -24 183 4 17 13 32 28 32 33 0 17 -73 79
-115 99 -22 10 -60 24 -85 31 -59 17 -220 19 -295 4z"/>
<path d="M2953 3711 c-197 -50 -354 -182 -431 -362 -48 -112 -68 -309 -42
-425 52 -236 216 -421 442 -497 297 -101 651 67 769 366 12 28 22 59 24 67 2
8 8 34 13 56 5 23 10 84 11 135 8 392 -235 661 -609 675 -79 3 -123 -1 -177
-15z m232 -156 c151 -52 249 -163 291 -327 21 -83 21 -253 0 -342 -49 -204
-175 -319 -361 -327 -247 -12 -394 167 -400 486 -5 278 107 462 310 510 51 13
125 13 160 0z"/>
<path d="M3798 3704 c-3 -5 -4 -18 -2 -29 2 -11 6 -135 9 -275 11 -504 16
-654 25 -702 23 -118 78 -190 184 -239 70 -32 116 -41 239 -44 107 -3 169 8
208 36 34 24 70 88 76 136 l5 33 -64 -6 c-103 -10 -250 -11 -293 -2 -55 12
-104 53 -127 105 -17 39 -20 73 -24 286 -8 483 -12 554 -33 602 -24 55 -80 93
-148 102 -28 3 -53 2 -55 -3z"/>
<path d="M2065 2021 c-59 -15 -115 -52 -142 -93 -25 -36 -28 -51 -28 -117 1
-78 18 -127 62 -177 24 -27 120 -92 208 -139 170 -92 221 -163 171 -237 -50
-75 -154 -85 -326 -32 -85 26 -90 26 -115 10 -32 -21 -32 -28 7 -67 115 -114
388 -127 530 -23 132 95 136 288 8 408 -26 24 -65 53 -86 63 -21 10 -70 36
-109 58 -150 83 -195 128 -175 179 25 67 138 80 279 31 87 -31 132 -28 139 7
5 24 -104 93 -182 117 -63 19 -188 25 -241 12z"/>
<path d="M3005 2017 c-200 -53 -331 -218 -340 -432 -5 -104 7 -164 49 -250 60
-121 188 -222 322 -253 106 -24 234 4 340 74 122 81 193 219 198 384 9 277
-168 475 -433 486 -50 2 -107 -2 -136 -9z m257 -152 c89 -58 140 -187 134
-339 -9 -222 -120 -346 -299 -334 -169 11 -258 136 -257 362 1 126 33 220 98
283 89 87 216 98 324 28z"/>
<path d="M4648 2016 c-158 -45 -276 -162 -320 -318 -35 -123 -15 -288 47 -395
61 -103 192 -197 310 -221 187 -39 397 67 489 245 39 76 60 242 41 332 -36
181 -155 311 -323 356 -64 16 -187 17 -244 1z m192 -118 c68 -21 128 -77 165
-153 29 -59 37 -97 39 -185 6 -214 -93 -354 -260 -368 -213 -17 -333 175 -290
461 20 130 99 223 216 253 47 12 71 11 130 -8z"/>
<path d="M3709 2003 c-1 -10 -1 -21 -1 -24 0 -3 3 -124 7 -270 10 -433 13
-458 57 -521 22 -31 89 -74 140 -89 56 -17 219 -14 254 4 36 19 62 54 71 97
l6 30 -117 -4 c-126 -5 -167 2 -201 34 -37 35 -44 85 -50 370 -5 231 -9 281
-23 309 -21 43 -55 67 -104 76 -32 5 -38 3 -39 -12z"/>
</g>
</svg>
